<svg aria-hidden="true" style="position: absolute; width: 0; height: 0; overflow: hidden;" version="1.1" xmlns="http://www.w3.org/2000/svg" xmlns:xlink="http://www.w3.org/1999/xlink">
<defs>
<symbol id="icon-logo" viewBox="0 0 33 32">
<path d="M11.52 0.32c0 0.16-0.416 0.32-0.96 0.32-0.512 0-0.96 0.128-0.96 0.32 0 0.16-0.288 0.32-0.64 0.32s-0.64 0.128-0.64 0.32c0 0.16-0.224 0.32-0.48 0.32-0.64 0-5.92 5.28-5.92 5.92 0 0.256-0.128 0.48-0.32 0.48-0.16 0-0.32 0.288-0.32 0.64s-0.128 0.64-0.32 0.64c-0.16 0-0.32 0.416-0.32 0.96 0 0.512-0.128 0.96-0.32 0.96s-0.32 1.696-0.32 4.48c0 2.784 0.128 4.48 0.32 4.48s0.32 0.416 0.32 0.96c0 0.512 0.16 0.96 0.32 0.96 0.192 0 0.32 0.288 0.32 0.64s0.16 0.64 0.32 0.64c0.192 0 0.32 0.224 0.32 0.48 0 0.64 5.28 5.92 5.92 5.92 0.256 0 0.48 0.128 0.48 0.32 0 0.16 0.288 0.32 0.64 0.32s0.64 0.128 0.64 0.32c0 0.16 0.288 0.32 0.64 0.32 0.48 0 0.64-0.224 0.64-0.832 0-0.832-0.64-1.728-1.28-1.728-0.192 0-0.832-0.512-1.44-1.12-1.088-1.088-1.12-1.152-1.12-3.712 0-2.464-0.032-2.624-0.96-3.488-0.768-0.736-0.96-1.152-0.96-2.24s0.192-1.504 1.024-2.304c0.832-0.768 0.928-0.992 0.544-1.28-0.352-0.224-0.352-0.352-0.032-0.48 0.224-0.096 0.384-0.768 0.384-1.728 0-0.864 0.16-1.568 0.32-1.568 0.192 0 0.32-0.224 0.32-0.48 0-0.64 3.36-4 4-4 0.256 0 0.48-0.16 0.48-0.32 0-0.192 0.288-0.32 0.64-0.32s0.64-0.16 0.64-0.32c0-0.192 1.184-0.32 2.88-0.32s2.88 0.128 2.88 0.32c0 0.16 0.288 0.32 0.64 0.32s0.64 0.128 0.64 0.32c0 0.16 0.224 0.32 0.48 0.32 0.64 0 4 3.36 4 4 0 0.256 0.16 0.48 0.32 0.48 0.192 0 0.32 0.704 0.32 1.568 0 0.96 0.16 1.632 0.416 1.728 0.288 0.128 0.288 0.256-0.064 0.48-0.384 0.288-0.288 0.512 0.544 1.28 0.832 0.8 1.024 1.216 1.024 2.304s-0.192 1.504-0.96 2.24c-0.928 0.864-0.96 1.024-0.96 3.488 0 2.56-0.032 2.624-1.12 3.712-0.608 0.608-1.248 1.12-1.44 1.12-0.64 0-1.28 0.896-1.28 1.728 0 0.448 0.16 0.832 0.32 0.832 0.192 0 0.32-0.16 0.32-0.32 0-0.192 0.288-0.32 0.64-0.32s0.64-0.16 0.64-0.32c0-0.192 0.256-0.32 0.576-0.32s0.768-0.288 1.024-0.64c0.256-0.352 0.64-0.64 0.896-0.64 0.544 0 2.624-2.080 2.624-2.624 0-0.256 0.288-0.64 0.64-0.896s0.64-0.704 0.64-1.024c0-0.32 0.16-0.576 0.32-0.576 0.192 0 0.32-0.288 0.32-0.64s0.16-0.64 0.32-0.64c0.192 0 0.32-0.288 0.32-0.64s0.16-0.64 0.32-0.64c0.192 0 0.32-0.736 0.32-1.6 0-0.896 0.16-1.6 0.32-1.6 0.192 0 0.32-0.864 0.32-1.92s-0.128-1.92-0.32-1.92c-0.16 0-0.32-0.736-0.32-1.6 0-0.896-0.128-1.6-0.32-1.6-0.16 0-0.32-0.288-0.32-0.64s-0.128-0.64-0.32-0.64c-0.16 0-0.32-0.288-0.32-0.64s-0.128-0.64-0.32-0.64c-0.16 0-0.32-0.256-0.32-0.576s-0.288-0.768-0.64-1.024c-0.352-0.256-0.64-0.64-0.64-0.896 0-0.544-2.080-2.624-2.624-2.624-0.256 0-0.64-0.288-0.896-0.64s-0.704-0.64-1.024-0.64c-0.32 0-0.576-0.16-0.576-0.32 0-0.192-0.288-0.32-0.64-0.32s-0.64-0.16-0.64-0.32c0-0.192-0.288-0.32-0.64-0.32s-0.64-0.16-0.64-0.32c0-0.192-1.824-0.32-4.8-0.32s-4.8 0.128-4.8 0.32z"></path>
<path d="M14.72 7.36c0 0.16-0.416 0.32-0.96 0.32-0.512 0-0.96 0.128-0.96 0.32 0 0.16-0.224 0.32-0.512 0.32-0.64 0-1.408 0.768-1.408 1.408 0 0.288 0.256 0.512 0.64 0.512 0.352 0 0.64 0.128 0.64 0.32 0 0.16 0.448 0.32 0.96 0.32 0.544 0 0.96 0.128 0.96 0.32s0.96 0.32 2.24 0.32c1.28 0 2.24-0.128 2.24-0.32s0.448-0.32 0.96-0.32c0.544 0 0.96-0.16 0.96-0.32 0-0.192 0.288-0.32 0.64-0.32 0.384 0 0.64-0.224 0.64-0.512 0-0.64-0.768-1.408-1.408-1.408-0.288 0-0.512-0.16-0.512-0.32 0-0.192-0.416-0.32-0.96-0.32-0.512 0-0.96-0.16-0.96-0.32 0-0.192-0.704-0.32-1.6-0.32-0.864 0-1.6 0.128-1.6 0.32z"></path>
<path d="M9.376 12c-0.224 0.256-0.416 1.12-0.416 1.92v1.44h14.72v-1.472c0-0.928-0.192-1.632-0.544-1.984-0.384-0.384-0.576-0.416-0.672-0.128-0.064 0.192-0.384 0.384-0.736 0.384-0.32 0-0.608 0.128-0.608 0.32 0 0.16-0.288 0.32-0.64 0.32s-0.64 0.128-0.64 0.32c0 0.192-1.376 0.32-3.52 0.32s-3.52-0.128-3.52-0.32c0-0.192-0.288-0.32-0.64-0.32s-0.64-0.16-0.64-0.32c0-0.192-0.288-0.32-0.64-0.32s-0.64-0.16-0.64-0.32c0-0.448-0.416-0.384-0.864 0.16z"></path>
<path d="M7.424 17.792c-0.352 0.384-0.352 0.544 0.064 0.928 0.384 0.384 1.504 0.48 5.76 0.48h5.312v2.24c0 2.016 0.064 2.24 0.64 2.24s0.64-0.224 0.64-2.24v-2.24h2.432c1.728 0 2.56-0.128 2.88-0.48 0.448-0.416 0.448-0.544 0-0.96-0.704-0.704-17.088-0.704-17.728 0.032z"></path>
<path d="M8.96 23.36c0 1.28 0.128 2.24 0.32 2.24s0.32 0.288 0.32 0.64c0 0.416 0.224 0.64 0.64 0.64 0.352 0 0.64 0.128 0.64 0.32s2.016 0.32 5.44 0.32c3.424 0 5.44-0.128 5.44-0.32s0.288-0.32 0.64-0.32c0.416 0 0.64-0.224 0.64-0.64 0-0.352 0.16-0.64 0.32-0.64 0.192 0 0.32-0.96 0.32-2.24v-2.24h-0.96c-0.928 0-0.96 0.064-0.96 1.44 0 1.888-1.024 3.040-2.72 3.040-0.608 0-1.12-0.16-1.12-0.32 0-0.192-0.288-0.32-0.64-0.32-0.416 0-0.64-0.224-0.64-0.64 0-0.352-0.128-0.64-0.32-0.64-0.16 0-0.32-0.576-0.32-1.28v-1.28h-7.040v2.24z"></path>
<path d="M12.8 30.272c0 1.44 0.64 1.728 3.968 1.728h3.072v-2.56h-7.040v0.832z"></path>
</symbol>
<symbol id="icon-right-arrow" viewBox="0 0 32 32">
<path d="M31.489 14.757l-11.556-11.557c-0.33-0.33-0.77-0.511-1.238-0.511s-0.909 0.181-1.239 0.511l-1.049 1.050c-0.33 0.329-0.511 0.769-0.511 1.238s0.182 0.924 0.511 1.253l6.742 6.757h-21.419c-0.966 0-1.729 0.756-1.729 1.722v1.484c0 0.966 0.763 1.798 1.729 1.798h21.495l-6.818 6.794c-0.33 0.33-0.511 0.758-0.511 1.227s0.182 0.903 0.511 1.232l1.049 1.046c0.33 0.33 0.769 0.51 1.239 0.51s0.908-0.182 1.238-0.512l11.556-11.556c0.331-0.331 0.513-0.773 0.511-1.242 0.001-0.471-0.181-0.913-0.511-1.244z"></path>
</symbol>
<symbol id="icon-burger" viewBox="0 0 46 32">
<path fill="none" stroke="#d41443" style="stroke: var(--color1, #d41443)" stroke-linejoin="miter" stroke-linecap="butt" stroke-miterlimit="4" stroke-width="2.2857" d="M0 2.286h45.714M0 16h45.714M0 29.714h45.714"></path>
</symbol>
<symbol id="icon-burger-close" viewBox="0 0 32 32">
<path fill="none" stroke="#fff" style="stroke: var(--color2, #fff)" stroke-linejoin="miter" stroke-linecap="butt" stroke-miterlimit="4" stroke-width="2" d="M2.52 2l26.96 28M2 29.48l28-26.96"></path>
</symbol>
<symbol id="icon-ellipse-red" viewBox="0 0 32 32">
<path fill="#c7133e" style="fill: var(--color3, #c7133e)" d="M32 16c0 8.837-7.163 16-16 16s-16-7.163-16-16c0-8.837 7.163-16 16-16s16 7.163 16 16z"></path>
</symbol>
<symbol id="icon-ellipse-white" viewBox="0 0 32 32">
<path fill="#fff" style="fill: var(--color2, #fff)" d="M32 16c0 8.837-7.163 16-16 16s-16-7.163-16-16c0-8.837 7.163-16 16-16s16 7.163 16 16z"></path>
</symbol>
<symbol id="icon-home" viewBox="0 0 35 32">
<path fill="#d31342" style="fill: var(--color4, #d31342)" d="M34.253 15.613c0.257-0.279 0.414-0.654 0.414-1.064 0-0.475-0.21-0.901-0.543-1.19l-0.002-0.002-14.773-12.925c-0.318-0.269-0.732-0.432-1.184-0.432-0.467 0-0.893 0.174-1.217 0.46l0.002-0.002-14.821 13.589c-0.316 0.288-0.513 0.701-0.513 1.16 0 0.424 0.168 0.809 0.442 1.091l-0-0 0.373 0.387c0.613 0.64 1.611 0.72 2.224 0.171l1.107-0.992v14.523c0 0.893 0.72 1.613 1.613 1.613h5.773c0.891 0 1.613-0.72 1.613-1.613v-10.16h7.373v10.16c-0.013 0.891 0.624 1.613 1.515 1.613h6.123c0.891 0 1.611-0.72 1.611-1.613v-14.32l0.685 0.603c0.376 0.331 1.168 0.064 1.765-0.595l0.421-0.461z"></path>
</symbol>
<symbol id="icon-ellipse-grey" viewBox="0 0 32 32">
<path fill="#d9d9d9" style="fill: var(--color5, #d9d9d9)" d="M32 16c0 8.837-7.163 16-16 16s-16-7.163-16-16c0-8.837 7.163-16 16-16s16 7.163 16 16z"></path>
</symbol>
<symbol id="icon-quotes" viewBox="0 0 43 32">
<path fill="#e1e1e1" style="fill: var(--color6, #e1e1e1)" d="M32.014 0c1.928 0 3.75 0.52 5.464 1.561s3.107 2.537 4.178 4.488c1.029 1.951 1.543 4.25 1.543 6.894s-0.643 5.225-1.928 7.74c-0.429 0.91-1.2 2.081-2.315 3.512-1.157 1.43-2.228 2.666-3.214 3.707l-4.050 4.098-2.893-4.813c2.063-1.302 3.824-2.855 5.306-4.646l0.030-0.037c1.542-1.821 2.314-3.49 2.314-5.008 0-0.781-0.171-1.41-0.514-1.886-1.5 1.084-3.172 1.626-5.014 1.626-1.328 0-2.593-0.412-3.793-1.236-1.237-0.782-2.237-1.834-2.935-3.078l-0.022-0.043c-0.771-1.258-1.157-2.558-1.157-3.902 0-1.518 0.45-2.97 1.35-4.358 0.866-1.389 2.011-2.526 3.364-3.356l0.044-0.025c1.37-0.824 2.784-1.236 4.242-1.236zM8.936 0c1.928 0 3.75 0.52 5.464 1.561s3.107 2.536 4.178 4.488c1.029 1.951 1.543 4.25 1.543 6.894 0 1.864-0.236 3.534-0.707 5.008-0.472 1.518-1.286 3.1-2.443 4.748-1.114 1.561-2.164 2.862-3.15 3.902-0.986 1.084-2.7 2.883-5.143 5.398l-2.893-4.813c2.063-1.302 3.824-2.855 5.306-4.646l0.030-0.037c1.542-1.821 2.314-3.49 2.314-5.008 0-0.781-0.172-1.41-0.514-1.886-1.5 1.084-3.172 1.626-5.014 1.626-1.328 0-2.593-0.412-3.793-1.236-1.237-0.782-2.237-1.834-2.935-3.078l-0.022-0.043c-0.771-1.258-1.157-2.558-1.157-3.902 0-1.518 0.429-2.97 1.286-4.358 0.866-1.389 2.011-2.526 3.364-3.356l0.045-0.025c1.37-0.824 2.784-1.236 4.242-1.236z"></path>
</symbol>
<symbol id="icon-facebook" viewBox="0 0 16 32">
<path fill="#fff" style="fill: var(--color2, #fff)" d="M14.143 15.971h-4.033v14.865h-6.112v-14.865h-2.906v-5.222h2.906v-3.382c0-2.417 1.142-6.204 6.167-6.204l4.527 0.019v5.072h-3.284c-0.538 0-1.297 0.272-1.297 1.425v3.073h4.567l-0.534 5.219z"></path>
</symbol>
<symbol id="icon-git" viewBox="0 0 32 32">
<path fill="#fff" style="fill: var(--color2, #fff)" d="M16 0c-8.789 0-16 7.211-16 16 0 7.499 5.262 14.312 12.25 16v-5.293c-0.276 0.070-0.593 0.109-0.919 0.109-0.398 0-0.781-0.059-1.143-0.169l0.028 0.007c-0.946-0.278-1.714-0.909-2.285-1.869-0.363-0.613-1.008-1.28-1.68-1.23l-0.165-1.867c1.454-0.125 2.71 0.886 3.456 2.139 0.333 0.558 0.715 0.885 1.205 1.029 0.472 0.141 0.981 0.074 1.573-0.136 0.149-1.186 0.693-1.629 1.104-2.256-4.168-0.621-5.829-2.832-6.488-4.576-0.874-2.318-0.405-5.213 1.139-7.043 0.030-0.035 0.085-0.128 0.064-0.192-0.709-2.141 0.154-3.91 0.186-4.098 0.818 0.24 0.95-0.243 3.552 1.336l0.448 0.27c0.189 0.112 0.128 0.048 0.317 0.032 1.003-0.282 2.157-0.452 3.349-0.469l0.010-0c1.136 0.014 2.272 0.176 3.403 0.483l0.146 0.016c-0.013-0.003 0.040-0.010 0.128-0.062 3.248-1.968 3.131-1.325 4.003-1.608 0.032 0.189 0.882 1.987 0.182 4.099-0.096 0.291 2.816 2.957 1.202 7.235-0.659 1.744-2.32 3.957-6.486 4.578 0.534 0.816 1.176 1.248 1.173 2.928v6.606c6.986-1.688 12.25-8.501 12.25-16 0-8.789-7.211-16-16-16z"></path>
</symbol>
<symbol id="icon-telegram" viewBox="0 0 44 32">
<path fill="#fff" style="fill: var(--color2, #fff)" d="M17.342 21.048l-0.674 8.86c0.966 0 1.384-0.388 1.886-0.852l4.526-4.040 9.38 6.414c1.72 0.894 2.934 0.422 3.4-1.478l6.156-26.932c0.548-2.374-0.92-3.302-2.594-2.72l-36.194 12.934c-2.47 0.896-2.434 2.18-0.42 2.766l9.252 2.684 21.494-12.552c1.012-0.626 1.932-0.28 1.176 0.346l-17.39 14.57z"></path>
</symbol>
<symbol id="arrow-right" viewBox="0 0 23 28">
<path d="M23 15c0 0.531-0.203 1.047-0.578 1.422l-10.172 10.172c-0.375 0.359-0.891 0.578-1.422 0.578s-1.031-0.219-1.406-0.578l-1.172-1.172c-0.375-0.375-0.594-0.891-0.594-1.422s0.219-1.047 0.594-1.422l4.578-4.578h-11c-1.125 0-1.828-0.938-1.828-2v-2c0-1.062 0.703-2 1.828-2h11l-4.578-4.594c-0.375-0.359-0.594-0.875-0.594-1.406s0.219-1.047 0.594-1.406l1.172-1.172c0.375-0.375 0.875-0.594 1.406-0.594s1.047 0.219 1.422 0.594l10.172 10.172c0.375 0.359 0.578 0.875 0.578 1.406z"></path>
</symbol>
<symbol id="arrow-left" viewBox="0 0 25 28">
<path d="M24 14v2c0 1.062-0.703 2-1.828 2h-11l4.578 4.594c0.375 0.359 0.594 0.875 0.594 1.406s-0.219 1.047-0.594 1.406l-1.172 1.188c-0.359 0.359-0.875 0.578-1.406 0.578s-1.047-0.219-1.422-0.578l-10.172-10.187c-0.359-0.359-0.578-0.875-0.578-1.406s0.219-1.047 0.578-1.422l10.172-10.156c0.375-0.375 0.891-0.594 1.422-0.594s1.031 0.219 1.406 0.594l1.172 1.156c0.375 0.375 0.594 0.891 0.594 1.422s-0.219 1.047-0.594 1.422l-4.578 4.578h11c1.125 0 1.828 0.938 1.828 2z"></path>
</symbol>
<symbol id="icon-icon_button_right" viewBox="0 0 22 32">
<path fill="none" stroke="#d41443" style="stroke: var(--color1, #d41443)" stroke-linejoin="round" stroke-linecap="round" stroke-miterlimit="4" stroke-width="6.4" d="M5.574 3.2l12.88 12.8-12.88 12.8"></path>
</symbol>
<symbol id="icon-untitled" viewBox="0 0 43 32">
<path fill="#e1e1e1" style="fill: var(--color1, #e1e1e1)" d="M32.014 0c1.929 0 3.75 0.52 5.464 1.561s3.107 2.537 4.179 4.488c1.029 1.951 1.543 4.249 1.543 6.894s-0.643 5.225-1.929 7.74c-0.429 0.911-1.2 2.081-2.314 3.512-1.157 1.431-2.229 2.667-3.214 3.707l-4.050 4.098-2.893-4.813c2.014-1.257 3.793-2.818 5.336-4.683 1.543-1.821 2.314-3.491 2.314-5.008 0-0.78-0.171-1.409-0.514-1.886-1.5 1.084-3.171 1.626-5.014 1.626-1.329 0-2.593-0.412-3.793-1.236-1.243-0.78-2.229-1.821-2.957-3.122-0.771-1.258-1.157-2.558-1.157-3.902 0-1.518 0.45-2.97 1.35-4.358 0.857-1.388 1.993-2.515 3.407-3.382 1.371-0.824 2.786-1.236 4.243-1.236zM8.936 0c1.929 0 3.75 0.52 5.464 1.561s3.107 2.537 4.179 4.488c1.029 1.951 1.543 4.249 1.543 6.894 0 1.864-0.236 3.534-0.707 5.008-0.471 1.518-1.286 3.1-2.443 4.748-1.114 1.561-2.164 2.862-3.15 3.902-0.986 1.084-2.7 2.884-5.143 5.398l-2.893-4.813c2.014-1.257 3.793-2.818 5.336-4.683 1.543-1.821 2.314-3.491 2.314-5.008 0-0.78-0.171-1.409-0.514-1.886-1.5 1.084-3.171 1.626-5.014 1.626-1.329 0-2.593-0.412-3.793-1.236-1.243-0.78-2.229-1.821-2.957-3.122-0.771-1.258-1.157-2.558-1.157-3.902 0-1.518 0.429-2.97 1.286-4.358s1.993-2.515 3.407-3.382c1.371-0.824 2.786-1.236 4.243-1.236z"></path>
</symbol>
<symbol id="icon-Ellipse-5" viewBox="0 0 32 32">
<path fill="#c7133e" style="fill: var(--color2, #c7133e)" d="M32 16c0 8.837-7.163 16-16 16s-16-7.163-16-16c0-8.837 7.163-16 16-16s16 7.163 16 16z"></path>
</symbol>
<symbol id="icon-Ellipse-7" viewBox="0 0 32 32">
<path fill="#d9d9d9" style="fill: var(--color3, #d9d9d9)" d="M32 16c0 8.837-7.163 16-16 16s-16-7.163-16-16c0-8.837 7.163-16 16-16s16 7.163 16 16z"></path>
</symbol>
<symbol id="icon-Vector" viewBox="0 0 35 32">
<path fill="#d31342" style="fill: var(--color4, #d31342)" d="M34.253 15.613c0.599-0.659 0.541-1.669-0.129-2.255l-14.772-12.926c-0.671-0.586-1.745-0.574-2.402 0.028l-14.822 13.587c-0.656 0.602-0.689 1.611-0.071 2.252l0.372 0.387c0.617 0.642 1.613 0.718 2.224 0.17l1.108-0.992v14.523c0 0.891 0.722 1.613 1.612 1.613h5.778c0.89 0 1.612-0.721 1.612-1.613v-10.16h7.37v10.16c-0.013 0.89 0.624 1.612 1.515 1.612h6.123c0.89 0 1.613-0.722 1.613-1.613v-14.318c0 0 0.306 0.268 0.683 0.6s1.168 0.066 1.767-0.594l0.42-0.462z"></path>
</symbol>
<symbol id="icon-more" viewBox="0 0 32 32">
<path d="M10.169 5.356l-0.919 0.925 9.719 9.719-9.719 9.719 1.875 1.875 11.594-11.594-5.781-5.781c-3.181-3.181-5.794-5.781-5.813-5.781s-0.444 0.412-0.956 0.919z"></path>
</symbol>
<symbol id="icon-close_X" viewBox="0 0 32 32">
<path d="M23.734 10.304l-1.504-1.504-5.963 5.962-5.962-5.962-1.504 1.504 5.962 5.962-5.962 5.963 1.504 1.504 5.962-5.963 5.963 5.963 1.504-1.504-5.963-5.963 5.963-5.962z"></path>
</symbol>
<symbol id="icon-burger1" viewBox="0 0 32 32">
<path d="M6.4 11.734v-2.134h19.2v2.134h-19.2zM6.4 17.066h19.2v-2.133h-19.2v2.133zM6.4 22.4h19.2v-2.134h-19.2v2.134z"></path>
</symbol>
<symbol id="icon-close" viewBox="0 0 32 32">
<path d="M32 3.223l-3.223-3.223-12.777 12.777-12.777-12.777-3.223 3.223 12.777 12.777-12.777 12.777 3.223 3.223 12.777-12.777 12.777 12.777 3.223-3.223-12.777-12.777 12.777-12.777z"></path>
</symbol>
<symbol id="icon-phone-black-icon" viewBox="0 0 32 32">
<path d="M24.882 19.774l-3.268-0.373c-0.090-0.011-0.194-0.018-0.3-0.018-0.707 0-1.347 0.287-1.81 0.75l-2.368 2.368c-3.669-1.894-6.585-4.81-8.427-8.372l-0.051-0.108 2.382-2.377c0.463-0.463 0.75-1.103 0.75-1.81 0-0.106-0.006-0.21-0.019-0.312l0.001 0.012-0.373-3.243c-0.155-1.287-1.24-2.276-2.557-2.276-0.001 0-0.002 0-0.003 0h-2.226c-1.454 0-2.663 1.209-2.574 2.661 0.683 10.987 9.47 19.762 20.444 20.444 1.452 0.089 2.663-1.12 2.663-2.574v-2.226c0-0.004 0-0.008 0-0.012 0-1.308-0.985-2.386-2.253-2.532l-0.012-0.001z"></path>
</symbol>
<symbol id="icon-person-black-icon" viewBox="0 0 32 32">
<path d="M16 16c2.946 0 5.333-2.388 5.333-5.333s-2.388-5.333-5.333-5.333v0c-2.946 0-5.333 2.388-5.333 5.333s2.388 5.333 5.333 5.333v0zM16 18.667c-3.561 0-10.667 1.787-10.667 5.333v1.333c0 0.732 0.599 1.333 1.333 1.333h18.667c0.732 0 1.333-0.601 1.333-1.333v-1.333c0-3.547-7.108-5.333-10.667-5.333z"></path>
</symbol>
<symbol id="icon-email-black-icon" viewBox="0 0 32 32">
<path d="M26.667 5.333h-21.333c-1.467 0-2.652 1.2-2.652 2.667l-0.014 16c0 1.467 1.2 2.667 2.667 2.667h21.333c1.467 0 2.667-1.2 2.667-2.667v-16c0-1.467-1.2-2.667-2.667-2.667zM26.133 11.001l-9.426 5.892c-0.201 0.126-0.446 0.2-0.708 0.2s-0.506-0.075-0.713-0.204l0.006 0.003-9.426-5.892c-0.336-0.201-0.557-0.562-0.557-0.975 0-0.625 0.507-1.132 1.132-1.132 0.233 0 0.449 0.070 0.629 0.19l-0.004-0.003 8.933 5.586 8.933-5.588c0.176-0.118 0.392-0.188 0.624-0.188 0.625 0 1.132 0.507 1.132 1.132 0 0.413-0.221 0.775-0.552 0.972l-0.005 0.003z"></path>
</symbol>
</defs>
</svg>
