<svg xmlns="http://www.w3.org/2000/svg" xml:space="preserve" width="26" height="6" style="shape-rendering:geometricPrecision;text-rendering:geometricPrecision;image-rendering:optimizeQuality;fill-rule:evenodd;clip-rule:evenodd" viewBox="0 0 26 6.04"><path d="M2.92.06c1.67 0 3.03 1.35 3.03 3.02S4.59 6.11 2.92 6.11C1.26 6.11-.1 4.75-.1 3.08-.1 1.41 1.26.06 2.92.06zm19.96 0c1.67 0 3.02 1.35 3.02 3.02s-1.35 3.03-3.02 3.03-3.02-1.36-3.02-3.03c0-1.67 1.35-3.02 3.02-3.02zm-9.98 0c1.67 0 3.03 1.35 3.03 3.02s-1.36 3.03-3.03 3.03c-1.67 0-3.02-1.36-3.02-3.03 0-1.67 1.35-3.02 3.02-3.02z" style="fill:#ffffff"/></svg>